# xmcd
#
# Track frame offsets: 
#        150
#        33801
#        75633
#        115571
#        153668
#        191382
#        224618
#        258997
#        289555
#
# Disc length: 4427 seconds
#
# Revision: 5
# Processed by: cddbd v1.5.2PL0 Copyright (c) Steve Scherf et al.
# Submitted via: ExactAudioCopy v0.99pb4
#
DISCID=71114909
DTITLE=Various Artist - In Trance
DYEAR=2003
DGENRE=Trance
TTITLE0=Shulz - Absurd
TTITLE1=Cyberspace - Exotic Dream
TTITLE2=Syndrome - Trance Maker
TTITLE3=Diva - Ultravoices
TTITLE4=Violet - Inspiration
TTITLE5=Divide By Zero - Anthrax
TTITLE6=Trancer - Paradise In Goa
TTITLE7=B.E.T.A. - Smooth
TTITLE8=Maxximus - Recoveration
EXTD=
EXTT0=
EXTT1=
EXTT2=
EXTT3=
EXTT4=
EXTT5=
EXTT6=
EXTT7=
EXTT8=
PLAYORDER=
